<svg xmlns="http://www.w3.org/2000/svg" viewBox="0 0 16 16"><path d="M8 0H4.7c-.9 0-1.4.2-1.9.4s-1 .5-1.4.9-.7.9-.9 1.4S.2 3.8.1 4.6v6.6c0 .9.2 1.4.4 1.9s.5 1 .9 1.4.9.7 1.4.9 1.1.3 1.9.4h6.6c.9 0 1.4-.2 1.9-.4s1-.5 1.4-.9.7-.9.9-1.4.3-1.1.4-1.9V4.6c0-.9-.2-1.4-.4-1.9s-.5-1-.9-1.4-.9-.7-1.4-.9-1.1-.3-1.9-.4zm-.7 1.4h3.9c.8 0 1.2.2 1.5.3.4.1.6.3.9.6s.5.5.6.9c.1.3.2.7.3 1.5v6.4c0 .8-.2 1.2-.3 1.5s-.3.7-.6.9c-.3.3-.5.5-.9.6-.3.1-.7.2-1.5.3H4.8c-.8 0-1.2-.2-1.5-.3s-.7-.3-.9-.6q-.45-.45-.6-.9c-.1-.3-.2-.7-.3-1.5V4.7c0-.8.2-1.2.3-1.5.1-.4.3-.6.6-.9s.5-.5.9-.6c.3-.1.7-.2 1.5-.3zm5 1.4c-.5 0-1 .4-1 1s.4 1 1 1c.5 0 1-.4 1-1s-.4-1-1-1M8 3.9c-2.3 0-4.1 1.8-4.2 4 0 2.3 1.8 4.1 4 4.2h.1c2.3 0 4.1-1.9 4-4.2 0-2.2-1.8-4-4-4M8 5.3c1.5 0 2.7 1.2 2.7 2.7S9.5 10.7 8 10.7 5.3 9.5 5.3 8 6.5 5.3 8 5.3" style="fill:#fff"/></svg>